<svg width="57" height="52" viewBox="0 0 57 52" fill="none" xmlns="http://www.w3.org/2000/svg">
<g filter="url(#filter0_d_227_1692)">
<path d="M45.4274 29.2018L43.161 25.9119C42.6858 25.1792 42.2699 23.8025 42.2856 23.0012L42.3825 18.0566C42.4725 13.4639 39.3348 9.43347 34.7344 7.48595C33.558 5.66418 31.343 4.50636 28.78 4.45613C26.2403 4.40636 23.9342 5.51469 22.687 7.30851C18.1063 9.1152 14.8837 12.9818 14.7949 17.516L14.698 22.4605C14.6823 23.2618 14.2128 24.6212 13.7097 25.3152L11.2924 28.5329C10.3347 29.824 10.0966 31.2662 10.6531 32.6066C11.1866 33.9269 12.4949 34.9692 14.2095 35.4916C18.7045 36.8701 23.4455 37.5886 28.1988 37.6818C32.9521 37.7749 37.7176 37.2427 42.2628 36.0609C43.9026 35.6434 45.1811 34.6322 45.8134 33.2956C46.4456 31.959 46.3116 30.4704 45.4274 29.2018Z" fill="#BEE9E8"/>
<path d="M34.7073 39.7844C33.6843 42.0323 31.0661 43.6037 28.0371 43.5443C26.1963 43.5083 24.3912 42.8473 23.1315 41.7082C22.3974 41.1072 21.8535 40.3145 21.543 39.5068C21.8451 39.5519 22.1476 39.5773 22.4731 39.6228C23.0078 39.692 23.5659 39.7615 24.1243 39.8116C25.4505 39.9353 26.8008 40.0204 28.1522 40.0469C29.4804 40.073 30.8096 40.0404 32.1164 39.9682C32.6064 39.9387 33.0961 39.9288 33.5633 39.8793C33.9369 39.8475 34.3104 39.8157 34.7073 39.7844Z" fill="#BEE9E8"/>
</g>
<defs>
<filter id="filter0_d_227_1692" x="10.3574" y="4.4541" width="43.8477" height="47.0918" filterUnits="userSpaceOnUse" color-interpolation-filters="sRGB">
<feFlood flood-opacity="0" result="BackgroundImageFix"/>
<feColorMatrix in="SourceAlpha" type="matrix" values="0 0 0 0 0 0 0 0 0 0 0 0 0 0 0 0 0 0 127 0" result="hardAlpha"/>
<feOffset dx="4" dy="4"/>
<feGaussianBlur stdDeviation="2"/>
<feComposite in2="hardAlpha" operator="out"/>
<feColorMatrix type="matrix" values="0 0 0 0 0 0 0 0 0 0 0 0 0 0 0 0 0 0 0.25 0"/>
<feBlend mode="normal" in2="BackgroundImageFix" result="effect1_dropShadow_227_1692"/>
<feBlend mode="normal" in="SourceGraphic" in2="effect1_dropShadow_227_1692" result="shape"/>
</filter>
</defs>
</svg>
