<?xml version="1.0" encoding="UTF-8"?>
<svg version="1.1" xmlns="http://www.w3.org/2000/svg" width="512" height="512">
<path d="M0 0 C4.50610579 3.07411736 9.07741811 6.04350541 13.65625 9.0078125 C15.36857267 10.11836148 17.08081043 11.2290414 18.79296875 12.33984375 C20.106604 13.1918335 20.106604 13.1918335 21.44677734 14.06103516 C26.1253068 17.09883325 30.79695839 20.14716643 35.46875 23.1953125 C36.42845703 23.82139404 37.38816406 24.44747559 38.37695312 25.0925293 C40.3289693 26.36600144 42.28095489 27.63952045 44.23291016 28.91308594 C48.0851989 31.42637136 51.93789092 33.93903796 55.79077148 36.45141602 C57.6954903 37.6936945 59.59995155 38.93636799 61.50415039 40.17944336 C66.43971124 43.40074613 71.37999143 46.61444379 76.328125 49.81640625 C77.34583984 50.47640625 78.36355469 51.13640625 79.41210938 51.81640625 C81.33368945 53.06236228 83.25674125 54.30605316 85.18164062 55.546875 C110.92748711 72.2600795 110.92748711 72.2600795 115.7421875 87.69921875 C117.77225198 98.09851135 115.99304153 107.47705798 110.53125 116.3828125 C103.44099294 126.34045293 94.12662707 132.24534904 82.15625 134.8203125 C80.7309738 134.90974099 79.30219075 134.9510617 77.87411594 134.95453358 C77.02073692 134.95899142 76.16735789 134.96344926 75.2881189 134.96804219 C74.35535549 134.96785783 73.42259208 134.96767347 72.46156311 134.96748352 C71.46684744 134.97116021 70.47213177 134.9748369 69.44727319 134.978625 C66.1042479 134.98966392 62.76125369 134.99350609 59.41821289 134.99731445 C57.0249522 135.00357908 54.63169249 135.01022587 52.23843384 135.01722717 C45.04828419 135.03645685 37.85813398 135.04705714 30.6679658 135.05595496 C27.27809299 135.06034186 23.88822173 135.06570775 20.49835014 135.07094383 C9.22196432 135.08795687 -2.05442054 135.10244851 -13.33081722 135.10969257 C-16.25610798 135.11160234 -19.18139873 135.11352268 -22.10668945 135.11547852 C-22.83371803 135.11596226 -23.56074661 135.116446 -24.30980635 135.1169444 C-36.07312995 135.12523519 -47.83635154 135.15055563 -59.59963065 135.18305919 C-71.68982476 135.21619224 -83.77996716 135.23414709 -95.87020689 135.23733681 C-102.653042 135.23949649 -109.4357285 135.24816483 -116.21851921 135.27379799 C-122.60514783 135.29712874 -128.99150978 135.30129159 -135.37817001 135.29103661 C-137.71576768 135.29054232 -140.05337869 135.29683103 -142.3909359 135.31059265 C-160.05547425 135.4087242 -174.35776975 134.64364004 -187.875 121.90625 C-195.7043338 113.57928905 -198.23418202 104.48174206 -198.12109375 93.2734375 C-197.30134013 83.0669276 -192.38204488 74.83135389 -184.89453125 68.07421875 C-179.9072703 63.87328195 -174.3584724 60.5265688 -168.84375 57.0703125 C-166.58821401 55.64448614 -164.33526945 54.21461591 -162.08203125 52.78515625 C-161.00131348 52.10050293 -159.9205957 51.41584961 -158.80712891 50.71044922 C-155.18245766 48.39851934 -151.59679625 46.03460407 -148.03125 43.6328125 C-139.93749281 38.19026209 -131.74933776 32.89553423 -123.56640625 27.58837891 C-118.82063249 24.50651972 -114.08257755 21.41283714 -109.34375 18.3203125 C-107.40498358 17.0559349 -105.46618169 15.79161168 -103.52734375 14.52734375 C-100.73003621 12.70321955 -97.93303446 10.87863814 -95.13720703 9.05224609 C-90.15049099 5.79465281 -85.15806832 2.54628512 -80.15429688 -0.68505859 C-78.62489006 -1.67438959 -77.09750978 -2.66686109 -75.57226562 -3.66259766 C-60.89697724 -13.23132607 -60.89697724 -13.23132607 -52.84375 -15.1796875 C-51.915625 -15.4065625 -50.9875 -15.6334375 -50.03125 -15.8671875 C-30.31311158 -17.80033833 -15.8948652 -10.84525442 0 0 Z " fill="#8B2CED" transform="translate(293.84375,275.1796875)"/>
<path d="M0 0 C16.17449316 13.84267863 26.49236846 32.7746902 29 54 C30.41472825 76.49308251 25.21336342 98.36702585 10.09350586 115.70410156 C-5.10903905 132.41924558 -24.84144584 142.93563588 -47.65625 144.203125 C-70.10726057 144.47691781 -91.24704935 137.84612875 -107.77270508 122.25048828 C-123.37127367 107.0257079 -132.85047494 87.77594678 -133.24145508 65.74658203 C-133.32930486 42.64961979 -125.82063539 22.29267407 -109.61328125 5.6171875 C-108.75089844 4.75351563 -107.88851562 3.88984375 -107 3 C-106.41605469 2.40445313 -105.83210938 1.80890625 -105.23046875 1.1953125 C-76.76519734 -25.46835946 -29.2163941 -24.19226651 0 0 Z " fill="#AF38F2" transform="translate(305,104)"/>
<path d="M0 0 C3.4471633 2.85622102 5.76541895 5.54625684 7.1875 9.8125 C7.2814829 11.22129332 7.32277368 12.63398902 7.3293457 14.04589844 C7.33638016 14.89819031 7.34341461 15.75048218 7.35066223 16.62860107 C7.35482651 17.55038147 7.35899078 18.47216187 7.36328125 19.421875 C7.38651383 21.39454152 7.41063246 23.36719776 7.43554688 25.33984375 C7.47037178 28.4331719 7.49984025 31.5261304 7.51342773 34.61962891 C7.63832736 58.42741945 12.02216609 77.85420746 28.98046875 95.69921875 C41.8608096 107.92043768 58.79038663 113.8871405 76.2734375 114.0234375 C78.27604989 114.0515029 80.27865395 114.08016735 82.28125 114.109375 C85.4235005 114.15061704 88.56559503 114.18752594 91.70800781 114.21386719 C94.75097285 114.24155655 97.7932426 114.28742072 100.8359375 114.3359375 C101.7684433 114.33919037 102.7009491 114.34244324 103.66171265 114.34579468 C110.76484316 114.47886967 115.57592496 115.58988294 121.125 120.3125 C123.85034102 123.9553725 123.94972648 127.68287891 123.73828125 132.1171875 C122.85627435 136.43339148 120.7692265 139.28465599 117.1875 141.8125 C112.15035259 143.90560498 107.73591594 144.10533908 102.37890625 144.078125 C101.11324074 144.08099518 101.11324074 144.08099518 99.82200623 144.08392334 C98.03766583 144.08528048 96.2533154 144.08161701 94.46899414 144.07324219 C91.78963912 144.06265661 89.11097327 144.07309054 86.43164062 144.0859375 C55.54131581 144.112091 29.86433185 136.16209252 7.1875 114.8125 C6.58164063 114.28269531 5.97578125 113.75289063 5.3515625 113.20703125 C-10.57256123 98.66598869 -20.19459869 74.86590664 -21.19482422 53.66308594 C-21.36262903 47.98885377 -21.37534999 42.3190598 -21.33398438 36.64282227 C-21.31230204 33.09258564 -21.33401134 29.54432073 -21.359375 25.99414062 C-21.35673553 23.72134973 -21.35161848 21.44856006 -21.34375 19.17578125 C-21.35184692 18.12264236 -21.35994385 17.06950348 -21.36828613 15.98445129 C-21.29101519 9.94333826 -20.83537209 6.41573769 -16.8125 1.8125 C-11.96435166 -2.34305572 -5.72654063 -2.41787271 0 0 Z " fill="#9C32F0" transform="translate(62.8125,327.1875)"/>
<path d="M0 0 C0.85709061 -0.00570007 1.71418121 -0.01140015 2.59724426 -0.01727295 C4.39123328 -0.02663565 6.18523881 -0.03322168 7.97924805 -0.03710938 C10.71107603 -0.04688948 13.44217348 -0.07802453 16.17382812 -0.109375 C17.92838101 -0.11590014 19.6829392 -0.12115253 21.4375 -0.125 C22.24495163 -0.1373468 23.05240326 -0.1496936 23.88432312 -0.16241455 C30.60484841 -0.13615372 35.22194592 1.24773323 40.45703125 5.703125 C43.18237227 9.3459975 43.28175773 13.07350391 43.0703125 17.5078125 C42.1883056 21.82401648 40.10125775 24.67528099 36.51953125 27.203125 C31.18614626 29.47889011 26.30924754 29.48282429 20.6171875 29.4765625 C18.6542914 29.49687378 16.69140083 29.51772494 14.72851562 29.5390625 C11.66816544 29.56149873 8.60803563 29.57807479 5.54760742 29.58398438 C-18.12192717 29.66086471 -36.60812366 34.15063244 -54.37109375 50.99609375 C-63.14405716 60.26303032 -68.49175172 71.92743413 -71.48046875 84.203125 C-71.65537842 84.87794922 -71.83028809 85.55277344 -72.01049805 86.24804688 C-72.70284575 90.60138539 -72.65720565 94.92255441 -72.69140625 99.32421875 C-72.71946727 101.33138847 -72.74813168 103.33854983 -72.77734375 105.34570312 C-72.8186216 108.49682445 -72.85552855 111.64778832 -72.88183594 114.79907227 C-72.9094821 117.84944464 -72.9553417 120.89911719 -73.00390625 123.94921875 C-73.00715912 124.88688583 -73.01041199 125.82455292 -73.01376343 126.79063416 C-73.13386452 133.20180558 -74.17139445 137.53325784 -78.48046875 142.515625 C-82.06854987 145.54306844 -85.70196583 145.54282504 -90.1953125 145.484375 C-94.62280034 144.93945342 -97.32354843 142.57451988 -100.11743164 139.26269531 C-102.20889348 134.56805091 -101.92816528 130.02156508 -101.9140625 124.9375 C-101.91930435 123.83069885 -101.9245462 122.72389771 -101.9299469 121.58355713 C-101.93636848 119.23670284 -101.93502838 116.88981638 -101.92651367 114.54296875 C-101.91809747 111.00720192 -101.9466121 107.47310338 -101.97851562 103.9375 C-102.07205704 74.41658417 -94.20926035 50.83644569 -73.48046875 29.203125 C-72.89523438 28.56632812 -72.31 27.92953125 -71.70703125 27.2734375 C-53.37145766 7.90487384 -25.8998247 0.13735212 0 0 Z " fill="#E64BFA" transform="translate(143.48046875,40.796875)"/>
<path d="M0 0 C4.49779892 2.24889946 6.95370973 4.43057482 9 9 C9.45649754 12.66970129 9.44408963 16.31736536 9.43359375 20.01171875 C9.4388356 21.09395218 9.44407745 22.17618561 9.44947815 23.29121399 C9.4558998 25.58679347 9.45455954 27.88240585 9.44604492 30.17797852 C9.43763915 33.63034762 9.46612558 37.08100188 9.49804688 40.53320312 C9.59486443 70.4074878 1.99399412 94.08990432 -19 116 C-19.58523438 116.63679688 -20.17046875 117.27359375 -20.7734375 117.9296875 C-31.06428325 128.80029921 -45.22966524 136.58452958 -59.5 140.875 C-60.43984741 141.16141357 -60.43984741 141.16141357 -61.39868164 141.45361328 C-74.30415057 145.02703671 -87.54670175 145.34883794 -100.83691406 145.31567383 C-103.5244859 145.31247082 -106.21099737 145.3362278 -108.8984375 145.36132812 C-110.63020697 145.36359793 -112.36197935 145.3643061 -114.09375 145.36328125 C-114.88551636 145.372491 -115.67728271 145.38170074 -116.49304199 145.39118958 C-121.72443659 145.34785154 -125.35544358 144.45394244 -130 142 C-133.45239166 138.36590352 -134.86994703 135.72320182 -135.25 130.6875 C-134.89243188 125.41337026 -133.40354037 122.3666051 -129.625 118.6875 C-124.35207458 115.29776223 -118.48312211 115.85262893 -112.4140625 115.82421875 C-110.49347895 115.80099348 -108.57290603 115.77687511 -106.65234375 115.75195312 C-103.65341341 115.71710451 -100.65486826 115.68763507 -97.65576172 115.67407227 C-75.52933318 115.55467845 -56.75016562 111.82736852 -40 96 C-22.38357092 77.71606208 -19.42386848 57.14123489 -19.4375 32.9375 C-19.43387973 29.88995553 -19.42429792 26.84297426 -19.39674377 23.79554749 C-19.38007837 21.91576762 -19.37698192 20.03580094 -19.38975525 18.1559906 C-19.33865501 11.83051335 -18.24796787 7.59921285 -14 2.6875 C-9.94415571 -0.73461862 -5.05727327 -0.62243363 0 0 Z " fill="#6820E8" transform="translate(461,326)"/>
<path d="M0 0 C0.8466069 -0.0033284 1.69321381 -0.0066568 2.56547546 -0.01008606 C4.36176004 -0.01514706 6.15805401 -0.01749464 7.9543457 -0.01733398 C10.65137173 -0.01949295 13.34796969 -0.03758002 16.04492188 -0.05664062 C44.17172468 -0.15062822 70.2424231 5.55021979 91.38671875 25.16796875 C92.29808594 25.9878125 93.20945312 26.80765625 94.1484375 27.65234375 C112.78244807 45.22081118 123.10059484 69.02098722 123.86642456 94.55244446 C123.93598632 99.0311471 123.94165305 103.50676628 123.90820312 107.98583984 C123.88648825 111.45479117 123.90825557 114.92173078 123.93359375 118.390625 C123.93095472 120.61328579 123.92583858 122.83594533 123.91796875 125.05859375 C123.92606567 126.0867218 123.9341626 127.11484985 123.94250488 128.1741333 C123.86412523 134.15740566 123.35241481 137.60023805 119.38671875 142.16796875 C115.65444094 145.36706401 112.27882726 145.63421004 107.53125 145.453125 C103.17398525 144.87374371 100.99948932 142.84882494 98.13671875 139.66796875 C95.81856981 136.35632741 95.26322872 133.87803887 95.24487305 129.93457031 C95.23783859 129.08227844 95.23080414 128.22998657 95.22355652 127.35186768 C95.21939224 126.43008728 95.21522797 125.50830688 95.2109375 124.55859375 C95.18770492 122.58592723 95.16358629 120.61327099 95.13867188 118.640625 C95.10384697 115.54729685 95.0743785 112.45433835 95.06079102 109.36083984 C94.93687246 85.74005743 90.71157317 65.67857898 73.453125 48.2109375 C60.35154601 36.11108889 43.78625852 29.92844238 26.12890625 29.82421875 C24.70797165 29.80228455 24.70797165 29.80228455 23.2583313 29.77990723 C19.24543088 29.7182091 15.23238675 29.67809448 11.21923828 29.63623047 C8.27230291 29.60235765 5.32568012 29.55729858 2.37890625 29.51171875 C1.03178055 29.5038031 1.03178055 29.5038031 -0.34255981 29.49572754 C-11.94860543 29.31285355 -11.94860543 29.31285355 -16.35546875 25.765625 C-20.07230149 20.7286758 -21.03761988 17.42696352 -20.61328125 11.16796875 C-18.87333844 6.49759594 -16.77155754 3.90634582 -12.61328125 1.16796875 C-8.46353958 -0.12293208 -4.30694052 0.00593727 0 0 Z " fill="#9C32F0" transform="translate(346.61328125,40.83203125)"/>
</svg>
